<svg version="1.1" id="Layer_1" xmlns="http://www.w3.org/2000/svg" xmlns:xlink="http://www.w3.org/1999/xlink" x="0px" y="0px"
	 width="100%" viewBox="0 0 736 736" enable-background="new 0 0 736 736" xml:space="preserve">
<path fill="#000000" opacity="1.000000" stroke="none" 
	d="
M445.470764,466.702301 
	C434.843567,471.440094 424.613281,472.328796 414.504242,466.346436 
	C413.625031,465.826111 412.715271,465.419342 411.669800,465.742798 
	C402.675323,468.525848 393.472198,467.033813 384.347504,467.042725 
	C381.746094,467.045258 379.729858,467.741760 377.568542,469.425201 
	C370.307922,475.080688 361.731018,473.497070 353.503967,472.824219 
	C347.259125,472.313446 341.583496,469.679749 336.466034,466.122620 
	C333.925995,464.357086 331.993134,464.390289 329.247894,465.907379 
	C320.403198,470.795288 311.031616,472.175537 301.358673,468.457550 
	C291.566925,464.693878 285.947418,457.516327 283.545105,447.278046 
	C281.417999,438.212433 281.556976,429.679230 285.174438,420.911652 
	C287.967682,414.141815 291.843140,408.640869 298.035950,404.891418 
	C300.529938,403.381470 301.862427,401.446442 302.462250,398.665558 
	C304.154999,390.816986 306.873047,383.297180 310.421295,376.109467 
	C311.698334,373.522522 311.414093,371.867981 308.939758,370.301392 
	C306.414581,368.702606 304.343048,366.121704 301.645508,365.107147 
	C290.465485,360.902405 286.721710,350.920929 282.687561,341.268036 
	C280.207123,335.332764 283.196716,326.593781 288.701843,322.490295 
	C290.763794,320.953369 291.807159,319.296234 292.066040,316.774567 
	C292.971802,307.953339 294.906860,299.363495 298.691803,291.295074 
	C299.763702,289.010101 300.703003,285.591644 304.300079,287.347137 
	C307.397003,288.858490 305.941101,291.641113 304.964905,293.923401 
	C301.728668,301.489532 299.609558,309.319122 299.096497,317.557495 
	C298.834320,321.767395 297.401550,325.218719 293.506927,327.528168 
	C290.009369,329.602234 288.608307,333.282104 289.145844,337.022247 
	C290.133026,343.891052 292.631073,350.915680 298.182953,354.817078 
	C304.686340,359.387054 311.030701,364.318359 317.940308,368.321350 
	C321.677521,370.486481 325.613220,372.287140 330.009888,372.915466 
	C331.982727,373.197418 333.396393,374.494019 332.972778,376.776337 
	C332.596954,378.801117 331.017120,379.279114 329.204834,379.277893 
	C326.484436,379.276001 323.852203,378.633667 321.496613,377.406891 
	C318.413666,375.801361 317.003052,377.077759 315.793030,379.800171 
	C312.465454,387.286865 309.932312,395.027283 308.211731,403.023804 
	C307.505341,406.306671 306.243011,408.596588 302.747131,409.981171 
	C292.842896,413.903839 287.278595,431.055328 289.625580,444.343170 
	C292.363159,459.842163 308.669403,468.360840 323.751617,461.319855 
	C327.402496,459.615509 330.115601,457.002441 330.325745,453.167419 
	C331.028564,440.338531 331.538177,427.454163 323.063141,416.358826 
	C320.669098,413.224609 318.270325,410.425354 313.922272,410.171539 
	C311.703430,410.042023 309.948547,408.808990 310.334656,406.320343 
	C310.732300,403.756866 312.922668,403.550537 315.015076,403.726990 
	C319.933807,404.141846 323.659546,406.551971 326.898193,410.275696 
	C334.186615,418.655853 336.643219,428.680176 337.182800,439.338867 
	C337.443024,444.479828 337.277466,449.670410 336.868530,454.803772 
	C336.698456,456.938416 337.133179,458.189270 338.761200,459.453339 
	C347.662231,466.364624 357.881592,467.748840 368.599060,466.308228 
	C373.680359,465.625214 375.931244,462.136688 375.289185,456.317902 
	C374.394135,448.206482 372.943207,440.156372 374.596710,431.975250 
	C374.974945,430.103912 373.956024,428.407990 373.438812,426.660553 
	C372.909760,424.873413 373.187469,423.215485 374.975952,422.398560 
	C377.032043,421.459381 378.533691,422.564301 379.500153,424.343719 
	C381.686218,428.368530 381.632233,432.746704 380.862000,437.030151 
	C379.616028,443.959442 381.780518,450.579407 382.239197,457.347107 
	C382.346039,458.923798 383.301788,459.763763 384.822296,459.872131 
	C391.952026,460.380341 399.064240,461.423798 406.232758,460.083130 
	C409.209808,459.526367 410.182800,458.243713 409.247070,455.261292 
	C407.106384,448.438507 408.168732,441.801147 410.621155,435.236908 
	C412.074493,431.346802 412.951996,427.262695 414.107025,423.283173 
	C417.261353,412.415131 423.351349,403.769653 434.460236,399.588654 
	C435.082703,399.354401 435.699982,399.096130 436.290955,398.793121 
	C436.573761,398.648102 436.789337,398.372040 437.541748,397.709167 
	C434.557800,390.454315 429.902893,384.085266 424.355530,378.443451 
	C421.879822,375.925629 419.805359,373.297729 417.804291,370.404999 
	C413.133423,363.652740 405.914429,359.649628 398.718781,356.615936 
	C392.847870,354.140747 385.677582,361.382874 385.354645,369.375916 
	C385.066071,376.518738 385.372528,383.695435 385.668365,390.846741 
	C385.772308,393.359955 386.069183,395.827881 382.987854,396.325439 
	C379.732910,396.851013 379.076324,394.179108 379.000183,391.811432 
	C378.733002,383.504425 377.603180,375.206696 378.738190,366.875732 
	C380.017151,357.487732 388.039948,349.871796 397.627136,349.108063 
	C398.279266,349.056091 399.062592,348.971680 399.588196,349.260468 
	C408.563995,354.191986 418.292297,358.307983 423.858765,367.559937 
	C427.771515,374.063293 431.212494,376.214203 438.552063,375.140320 
	C441.183411,374.755249 443.854004,374.607513 446.466156,374.129822 
	C449.664551,373.544922 452.499939,372.353851 453.966980,369.033325 
	C454.725800,367.315704 456.451263,366.403076 457.909637,365.288422 
	C465.654968,359.368805 464.751801,349.289459 460.305084,341.877350 
	C459.463684,340.474823 457.731628,340.515015 456.303894,340.102386 
	C447.397644,337.528381 436.990417,323.170227 437.297119,314.003815 
	C437.356995,312.214996 438.086914,311.030029 439.857971,310.958893 
	C442.075500,310.869751 443.688019,311.940643 444.315094,314.185150 
	C445.485901,318.376007 447.162201,322.339874 449.280060,326.151123 
	C451.706512,330.517639 455.153931,333.095428 460.170319,334.015503 
	C464.988495,334.899231 469.775726,335.122620 474.589783,334.630798 
	C481.231110,333.952301 486.925293,331.925262 488.832794,324.382629 
	C489.340790,322.373840 490.834351,320.566437 492.061523,318.795532 
	C497.711639,310.641907 496.914581,300.220947 489.682281,293.343323 
	C484.923370,288.817810 481.127899,283.732758 477.696564,278.124695 
	C472.154663,269.067261 464.860352,261.930817 453.448669,260.742523 
	C451.098969,260.497833 448.408295,259.877472 449.011841,256.629608 
	C449.574554,253.601730 452.199463,253.628235 454.611084,253.938278 
	C467.783539,255.631866 476.704651,263.554016 483.334839,274.303009 
	C486.870850,280.035675 490.881470,285.161621 495.770416,289.799774 
	C503.845734,297.460785 504.780945,312.469727 498.258453,322.187195 
	C496.873505,324.250549 495.214264,326.293457 494.478668,328.600037 
	C491.652100,337.463196 484.755463,340.223083 476.522369,341.280273 
	C473.944824,341.611237 471.387451,342.099335 468.560120,342.557800 
	C472.691864,353.188873 470.499420,361.677795 463.387726,369.954193 
	C456.542114,377.920868 448.703552,382.561523 436.867157,381.616058 
	C440.794220,388.363922 443.686890,393.744080 445.319916,399.666748 
	C445.507690,400.347839 446.387909,400.906189 447.049164,401.378510 
	C460.655609,411.097534 464.078003,424.761627 462.437866,440.513947 
	C461.238953,452.028198 456.765076,461.315399 445.470764,466.702301 
M445.981323,458.522827 
	C448.940887,456.307404 451.922943,453.957123 453.135254,450.375916 
	C457.367188,437.874420 457.763641,425.525940 450.464722,413.877045 
	C443.975372,403.520294 434.424255,402.809784 427.048737,412.556885 
	C418.981873,423.217651 416.874969,436.129730 415.131866,448.973419 
	C414.814301,451.313354 415.938599,453.845490 416.377655,456.292419 
	C417.009460,459.813660 419.258606,461.781250 422.546295,462.761627 
	C430.782593,465.217590 438.314240,463.439880 445.981323,458.522827 
z"/>
<path fill="#000000" opacity="1.000000" stroke="none" 
	d="
M369.883270,318.099213 
	C360.249176,333.746613 337.708679,334.256531 328.856323,319.027374 
	C320.530212,304.703522 330.251465,286.628662 346.883453,285.837646 
	C356.783295,285.366821 369.426514,289.608704 371.842865,303.285095 
	C372.706604,308.173676 376.837311,306.750580 379.648224,307.788330 
	C382.722229,308.923187 383.075256,306.189758 383.971924,304.294983 
	C387.903717,295.986450 397.884613,291.903809 408.807892,294.067749 
	C418.281067,295.944427 424.969666,300.974640 427.271759,310.702850 
	C429.518921,320.199127 426.428619,328.052612 419.355103,334.502472 
	C418.626129,335.167175 417.815704,335.888947 416.911530,336.192627 
	C407.329559,339.410950 397.874420,339.441895 389.226318,333.697906 
	C384.096588,330.290802 381.484619,324.968506 381.516907,318.757721 
	C381.540039,314.308441 378.158569,314.352448 375.447113,313.585052 
	C372.456268,312.738556 370.644958,314.113586 370.080902,317.604889 
	C369.981750,318.008148 369.883270,318.099213 369.883270,318.099213 
M391.329712,327.146606 
	C395.898010,331.789825 401.797394,331.771332 407.649017,331.667938 
	C414.331970,331.549896 418.912140,327.939117 420.751465,321.446411 
	C424.342194,308.771179 415.860718,298.462616 399.615601,300.536469 
	C396.338135,300.954895 392.748260,301.711945 391.041626,304.986084 
	C387.343475,312.080902 385.632935,319.351746 391.329712,327.146606 
M356.653442,293.651306 
	C349.984802,291.352570 343.397552,291.243347 337.696625,295.819855 
	C332.842285,299.716766 331.148926,308.783234 333.637604,314.164154 
	C336.822174,321.049744 343.449524,324.622070 351.233276,323.648743 
	C359.706604,322.589111 363.741333,318.717438 365.443420,310.012787 
	C366.788452,303.134125 364.117798,297.839355 356.653442,293.651306 
z"/>
<path fill="#000000" opacity="1.000000" stroke="none" 
	d="
M349.944458,236.936768 
	C348.160828,238.944397 346.687805,240.755157 345.074005,242.430283 
	C343.646179,243.912399 341.931976,244.419571 340.238159,242.849228 
	C338.836517,241.549774 338.626617,239.956207 339.787628,238.365387 
	C346.408783,229.293167 354.895752,222.879486 366.110840,220.833572 
	C371.733246,219.807907 376.712250,221.624939 380.290497,226.276962 
	C383.662659,230.661072 387.976776,231.609268 393.160797,230.568237 
	C404.934875,228.203812 415.689209,229.525269 424.101410,239.316574 
	C426.097076,241.639374 429.140961,241.623749 431.970428,241.835785 
	C436.021912,242.139404 438.781464,244.263275 440.397583,247.916214 
	C441.170044,249.662201 440.784912,251.198029 439.162598,252.267944 
	C437.684814,253.242554 436.052063,252.993362 435.121826,251.689468 
	C433.112885,248.873611 430.195679,248.526535 427.198517,248.232208 
	C423.689819,247.887665 420.941437,246.284882 418.683289,243.590149 
	C413.201111,237.048157 405.783905,235.166656 397.937073,236.758591 
	C388.589935,238.654877 380.529694,238.273056 374.239868,229.974625 
	C371.999268,227.018463 368.535339,226.691833 365.118774,227.941956 
	C359.628601,229.950790 354.280151,232.251968 349.944458,236.936768 
z"/>
<path fill="#000000" opacity="1.000000" stroke="none" 
	d="
M269.683777,284.212646 
	C270.087097,274.649109 273.867340,268.134735 283.249481,265.805939 
	C286.929443,264.892517 289.803650,262.829285 292.128448,259.760010 
	C296.587616,253.872849 302.774841,249.750366 308.141785,244.798874 
	C312.112701,241.135361 317.431824,239.705872 322.878662,239.325104 
	C325.403748,239.148605 327.828125,239.628723 328.049805,242.652847 
	C328.257263,245.483063 326.077026,246.158157 323.686218,246.247177 
	C317.873077,246.463638 313.405151,249.179504 309.200928,253.115173 
	C304.109741,257.881165 298.826233,262.406952 294.149933,267.628296 
	C291.422638,270.673462 287.287689,271.632446 283.525085,272.918793 
	C280.422974,273.979370 278.456665,275.907166 277.397888,278.956268 
	C273.327240,290.678894 277.271271,302.892609 287.474457,309.983582 
	C289.069672,311.092194 290.525269,312.383087 289.568634,314.476929 
	C288.503082,316.809204 286.425079,316.532990 284.396362,315.885468 
	C276.788788,313.457397 270.251221,303.173309 269.716309,292.671265 
	C269.580902,290.013794 269.682770,287.344238 269.683777,284.212646 
z"/>
<path fill="#000000" opacity="1.000000" stroke="none" 
	d="
M370.029480,317.961060 
	C371.554138,317.844604 373.032135,317.701416 374.507690,317.723694 
	C376.574524,317.754852 378.661133,318.126892 379.053680,320.583099 
	C379.413452,322.834045 378.076141,324.445221 376.011658,325.070953 
	C373.591705,325.804413 371.297638,325.270111 370.176392,322.767883 
	C369.674652,321.648102 369.879639,320.211609 369.823578,318.509033 
	C369.883270,318.099213 369.981750,318.008148 370.029480,317.961060 
z"/>
<path fill="#000000" opacity="1.000000" stroke="none" 
	d="
M405.041504,319.807922 
	C403.502167,324.496307 400.280945,325.284363 396.612946,323.779114 
	C393.101868,322.338287 392.608643,319.209167 393.690918,315.815155 
	C394.438751,313.469879 394.915863,310.967316 397.413269,309.624176 
	C400.830719,307.786224 404.646149,309.505188 405.297760,313.491180 
	C405.610870,315.406525 405.214783,317.437805 405.041504,319.807922 
z"/>
<path fill="#000000" opacity="1.000000" stroke="none" 
	d="
M351.988373,317.210083 
	C348.889191,313.847198 349.641235,310.466187 351.060516,307.155243 
	C352.175293,304.554565 354.115051,302.555298 357.156799,302.960693 
	C360.515350,303.408203 361.657501,306.131195 361.933685,309.111481 
	C362.541748,315.672729 358.478943,319.144592 351.988373,317.210083 
z"/>
</svg>