<svg width="63" height="63" viewBox="0 0 63 63" fill="none" xmlns="http://www.w3.org/2000/svg">
<circle cx="31.2958" cy="31.2958" r="31.2958" fill="white"/>
<path d="M19.4361 53.3505C25.7118 57.6839 35.4515 56.8333 39.6243 54.7666C43.7971 52.6999 44.8403 49.5999 45.1404 48.1066C45.4406 46.6133 45.4099 43.8162 45.1404 41.8378C44.587 37.7834 39.1679 27.3338 38.523 26.2802C38.3522 26.0013 38.3185 25.6652 38.4316 25.3554C39.0597 23.6559 39.3941 21.8992 39.4302 20.1306C39.4831 17.4165 38.8193 15.4122 38.1781 13.4756L38.1741 13.4637C37.6447 11.8667 36.9565 10.2912 36.1312 8.77759C36.0854 8.69179 36.0084 8.66795 35.9651 8.6608C35.8929 8.64888 35.8183 8.66795 35.763 8.71562L31.5712 12.3625C31.3065 12.5937 30.9407 12.6819 30.5942 12.5985C29.5523 12.341 27.3288 12.1408 26.027 12.4531C25.5914 12.5556 25.1318 12.3816 24.8792 12.0169C24.7661 11.8524 23.2188 9.86689 21.9386 8.35332C21.8905 8.29611 21.8207 8.26036 21.7413 8.26751C21.6643 8.27228 21.5945 8.31041 21.5488 8.37715C20.5622 9.8359 19.7633 11.3876 19.1786 12.9846C17.8807 16.5199 17.9656 19.2658 18.1192 24.2385L18.1198 24.2566L18.1439 25.0002C18.1776 26.08 18.2883 27.6818 18.4182 29.5386L18.4184 29.5412C18.6157 32.3724 18.8586 35.8585 18.9524 39.2898C19.4529 38.9966 19.9919 38.7439 20.5598 38.5366C22.3694 37.8763 25.8682 37.2757 27.4876 39.2183C28.301 40.1908 28.5151 41.6471 28.0218 42.8461C27.5106 44.0896 26.451 44.5907 25.5955 44.9954L25.589 44.9985C24.8623 45.3417 24.4412 45.5562 24.2704 45.9829C24.0177 46.6169 24.4244 47.3582 24.5543 47.5703C25.2714 48.7383 27.1892 49.2508 29.1119 48.7883C29.6846 48.6501 30.2669 48.9623 30.4378 49.4963C30.5292 49.7823 30.4979 50.0826 30.3512 50.3448C30.2068 50.6022 29.9565 50.7906 29.6678 50.8621C26.7922 51.5724 23.9287 50.6761 22.7039 48.6858C22.3694 48.14 21.6547 46.7051 22.2563 45.1963C22.7496 43.9616 23.806 43.4634 24.6554 43.063C25.3965 42.7126 25.8273 42.4933 26.015 42.038C26.2027 41.5828 26.116 40.9464 25.8176 40.5888C25.5433 40.2599 24.9923 40.074 24.2223 40.0501C23.1779 40.0215 22.0301 40.2885 21.3058 40.5531C18.2979 41.6495 17.4196 43.9401 17.2222 44.6171C15.6483 49.5999 18.3057 52.5694 19.4361 53.3505Z" fill="black"/>
<path d="M26.4079 22.4826C25.8593 22.4659 25.2288 22.025 25.2673 20.8403C25.3058 19.6557 25.9603 19.2529 26.509 19.2695C27.1009 19.2886 27.6857 19.8035 27.6496 20.9118C27.6135 22.0202 26.9999 22.4993 26.4079 22.4826Z" fill="#F8F8F8"/>
<path d="M35.5685 22.7643C34.9765 22.7452 34.3918 22.2303 34.4279 21.122C34.464 20.0136 35.0776 19.5345 35.6695 19.5512C36.2182 19.5679 36.8486 20.0088 36.8101 21.1935C36.7716 22.3781 36.1171 22.7809 35.5685 22.7643Z" fill="#F8F8F8"/>
</svg>
