<svg version="1.1" id="Layer_1" xmlns="http://www.w3.org/2000/svg" xmlns:xlink="http://www.w3.org/1999/xlink" x="0px" y="0px"
	 width="100%" viewBox="0 0 624 624" enable-background="new 0 0 624 624" xml:space="preserve">
<path fill="#000000" opacity="1.000000" stroke="none" 
	d="
M277.477570,237.448669 
	C295.200226,223.143265 314.348236,223.895447 334.357819,230.358658 
	C342.871948,233.108780 350.696655,236.820633 357.320038,242.869171 
	C364.689850,249.599289 368.731781,258.220123 371.337006,267.664978 
	C372.801666,272.974854 373.620972,278.409119 373.776154,283.865753 
	C373.942719,289.721375 371.399811,295.165741 370.072784,300.775055 
	C368.800171,306.154114 369.386230,310.301300 373.262573,314.443359 
	C378.282166,319.807037 383.949646,324.402893 389.345795,329.320648 
	C391.969330,331.711578 394.910034,333.400879 398.482880,334.152496 
	C402.293030,334.954071 405.582672,337.035156 405.750732,341.282837 
	C405.913483,345.396515 403.176636,347.460144 399.360077,349.108124 
	C395.212219,350.899139 391.158936,352.564667 386.662048,352.998322 
	C384.266632,353.229309 383.035492,354.360291 383.181396,356.873383 
	C383.663361,365.174774 381.584015,372.898438 377.760376,380.060608 
	C378.330872,381.816772 379.847290,382.358734 380.984039,383.293579 
	C392.595886,392.843384 388.502625,398.478607 381.116028,406.778381 
	C379.097473,409.046448 376.238800,410.141205 373.258789,410.895081 
	C366.708649,412.552094 360.020233,412.563538 353.394714,412.209717 
	C348.194244,411.932037 343.917389,409.089508 340.990387,404.756897 
	C339.368652,402.356445 337.653046,401.335022 334.765350,402.031860 
	C321.601440,405.208527 308.321777,403.544647 295.074097,402.787933 
	C293.372833,402.690765 291.530609,402.239166 290.391113,403.688751 
	C283.738831,412.151276 274.214996,411.749207 264.929260,412.121857 
	C260.893890,412.283813 256.999115,411.475372 253.109390,410.464264 
	C244.149475,408.135223 240.877762,397.256714 247.067139,390.261292 
	C249.341187,387.691040 252.249420,386.074097 255.307312,384.754944 
	C259.235779,383.060242 260.593018,380.507294 258.850159,376.429352 
	C256.794922,371.620514 256.082367,366.490112 255.846497,361.331604 
	C255.673859,357.556244 254.131912,355.785675 250.274780,356.218658 
	C245.279861,356.779327 241.228256,354.177429 237.245956,351.863983 
	C234.411469,350.217377 232.941498,347.236664 232.961533,343.846649 
	C232.982330,340.325958 235.774841,339.414764 238.406815,338.167450 
	C249.087067,333.105957 256.922363,325.481750 260.129944,313.695831 
	C261.263367,309.531189 261.117798,305.438904 260.137695,301.363556 
	C258.502350,294.563965 256.975891,287.620178 257.421356,280.718048 
	C258.502106,263.972778 263.804932,248.884308 277.477570,237.448669 
M296.914490,258.388885 
	C289.521545,253.733719 280.838593,255.321976 276.596802,262.643494 
	C270.990845,272.319550 268.979065,282.811310 272.209839,293.715729 
	C275.868347,306.063660 277.344391,318.232178 273.598297,330.942993 
	C269.536072,344.726440 268.894623,358.770050 273.094635,372.780426 
	C273.678741,374.728821 274.448853,376.416748 275.727020,378.046448 
	C284.617981,389.382507 297.058533,392.018860 310.400757,392.138184 
	C328.057800,392.296143 343.401489,385.536682 357.553131,375.589813 
	C361.651184,372.709381 364.429016,368.904602 365.148712,363.760132 
	C366.125275,356.779541 365.617126,349.808868 365.236603,342.830078 
	C364.732056,333.576752 358.587524,327.060242 353.854675,319.948120 
	C351.885895,316.989655 350.965607,314.032135 352.144104,311.078156 
	C354.320831,305.622040 355.010132,299.834137 356.688324,294.287079 
	C359.471130,285.088837 359.917084,276.130432 355.069824,267.282349 
	C350.191711,258.377899 341.507629,254.041199 331.702454,256.374298 
	C327.092804,257.471130 323.578583,260.234436 321.661407,264.585419 
	C319.734985,268.957489 320.334686,272.606171 324.442688,275.965881 
	C327.642944,278.583221 326.072968,282.082367 323.740356,284.830109 
	C319.606598,289.699524 311.975983,290.526062 304.862366,286.997681 
	C300.594116,284.880615 298.807068,280.607666 300.583466,276.243286 
	C303.222321,269.760101 302.728058,263.939819 296.914490,258.388885 
M373.627197,396.349823 
	C373.228882,391.535370 369.885651,391.005280 366.161133,391.466400 
	C363.002899,391.857422 360.251617,393.553680 357.463928,394.983490 
	C355.973633,395.747833 353.542389,396.065491 354.181915,398.575684 
	C354.733307,400.739807 356.625122,401.504059 358.758820,401.738342 
	C362.238342,402.120392 365.118713,401.784790 364.453766,397.431824 
	C367.372498,396.236969 368.881470,397.953003 370.256195,399.298157 
	C371.489227,398.365417 372.499115,397.601532 373.627197,396.349823 
M260.946869,396.421387 
	C265.337433,392.701508 270.220398,397.088074 274.810303,395.370392 
	C270.542511,394.041595 266.324127,392.289459 261.753632,393.776703 
	C258.799133,394.738129 258.504517,396.390594 260.688171,399.745667 
	C260.745331,398.611694 260.784973,397.825775 260.946869,396.421387 
z"/>
<path fill="#000000" opacity="1.000000" stroke="none" 
	d="
M340.181213,278.281677 
	C336.359375,277.527527 333.290985,276.198517 332.369263,272.475739 
	C331.750824,269.977814 332.222168,267.562714 334.332031,265.676208 
	C337.736572,262.632080 341.324402,263.189301 344.976227,265.024811 
	C348.776672,266.935059 348.503998,270.635437 347.952789,273.764832 
	C347.302399,277.457031 343.933044,278.190735 340.181213,278.281677 
z"/>
<path fill="#000000" opacity="1.000000" stroke="none" 
	d="
M288.744080,280.191467 
	C283.190430,279.639282 279.667206,276.576385 279.951416,272.963867 
	C280.317078,268.315674 284.051880,265.429626 288.968506,265.765167 
	C292.759888,266.023956 293.706390,268.343475 294.368561,271.637970 
	C295.318024,276.362061 293.553497,278.935089 288.744080,280.191467 
z"/>
</svg>