<svg width="320" height="320" viewBox="0 0 320 320" fill="none" xmlns="http://www.w3.org/2000/svg">
<rect width="320" height="320" rx="160" fill="white"/>
<path d="M151.422 96.5332C161.521 96.5332 169.708 104.72 169.708 114.819C169.708 124.918 161.521 133.105 151.422 133.105C150.962 133.105 150.507 133.088 150.056 133.054C143.924 132.6 136.905 132.446 132.508 136.745C127.991 141.162 128.109 148.439 128.525 154.743C128.551 155.146 128.565 155.552 128.565 155.962C128.565 166.061 120.378 174.247 110.279 174.247C100.18 174.247 91.9934 166.061 91.9934 155.962C91.9934 145.863 100.18 137.676 110.279 137.676C116.08 137.676 122.544 137.433 126.691 133.377L128.635 131.476C132.856 127.347 133.136 120.724 133.136 114.819C133.136 104.72 141.323 96.5332 151.422 96.5332Z" fill="#105AB3"/>
<path d="M210.852 146.814C220.951 146.814 229.137 155.001 229.137 165.1C229.137 175.199 220.951 183.386 210.852 183.386C210.42 183.386 209.992 183.371 209.568 183.341C203.422 182.914 196.394 182.771 191.989 187.077C187.463 191.503 187.572 198.789 187.96 205.107C187.983 205.483 187.995 205.862 187.995 206.243C187.995 216.342 179.808 224.529 169.709 224.529C159.61 224.529 151.423 216.342 151.423 206.243C151.423 196.144 159.61 187.957 169.709 187.957C175.547 187.957 182.062 187.727 186.236 183.645L188.051 181.87C192.299 177.715 192.566 171.043 192.566 165.1C192.566 155.001 200.753 146.814 210.852 146.814Z" fill="#30B2F4"/>
<path d="M201.713 101.111C211.812 101.111 219.999 109.298 219.999 119.397C219.999 129.496 211.812 137.683 201.713 137.683C201.52 137.683 201.327 137.68 201.135 137.674C194.872 137.478 187.75 137.428 183.275 141.814C178.685 146.311 178.698 153.674 178.851 160.097C178.854 160.244 178.856 160.392 178.856 160.54C178.856 170.639 170.669 178.826 160.57 178.826C160.145 178.826 159.723 178.811 159.305 178.782C153.15 178.36 146.109 178.22 141.701 182.537C137.182 186.963 137.293 194.241 137.679 200.555C137.702 200.928 137.713 201.304 137.713 201.683C137.713 211.782 129.526 219.968 119.428 219.968C109.329 219.968 101.142 211.782 101.142 201.683C101.142 191.584 109.329 183.397 119.428 183.397C125.279 183.397 131.81 183.168 135.99 179.073L137.776 177.324C142.024 173.163 142.285 166.486 142.285 160.54C142.285 150.441 150.471 142.254 160.57 142.254C166.737 142.254 173.684 142.147 178.09 137.833L178.808 137.129C183.279 132.751 183.428 125.654 183.428 119.397C183.428 109.298 191.614 101.111 201.713 101.111Z" fill="#2593EC"/>
</svg>
